<svg width="90" height="30" viewBox="0 0 90 30" fill="none" xmlns="http://www.w3.org/2000/svg">
<path d="M0.869318 0.90909H7.31818L15.9545 21.9886H16.2955L24.9318 0.90909H31.3807V30H26.3239V10.0142H26.054L18.0142 29.9148H14.2358L6.19602 9.97159H5.92614V30H0.869318V0.90909ZM38.8352 30V26.1932L48.9347 16.2926C49.9006 15.3172 50.7055 14.4508 51.3494 13.6932C51.9934 12.9356 52.4763 12.2017 52.7983 11.4915C53.1203 10.7812 53.2812 10.0237 53.2812 9.21875C53.2812 8.30019 53.0729 7.5142 52.6562 6.8608C52.2396 6.19792 51.6667 5.68655 50.9375 5.3267C50.2083 4.96686 49.3797 4.78693 48.4517 4.78693C47.4953 4.78693 46.6572 4.98579 45.9375 5.38352C45.2178 5.77178 44.6591 6.32576 44.2614 7.04545C43.8731 7.76515 43.679 8.62216 43.679 9.61648H38.6648C38.6648 7.76989 39.0862 6.16477 39.929 4.80114C40.7718 3.4375 41.9318 2.38163 43.4091 1.63352C44.8958 0.885416 46.6004 0.511363 48.5227 0.511363C50.4735 0.511363 52.1875 0.875946 53.6648 1.60511C55.142 2.33428 56.2879 3.33333 57.1023 4.60227C57.9261 5.87121 58.3381 7.32007 58.3381 8.94886C58.3381 10.0379 58.1297 11.108 57.7131 12.1591C57.2964 13.2102 56.5625 14.375 55.5114 15.6534C54.4697 16.9318 53.0066 18.4801 51.1222 20.2983L46.108 25.3977V25.5966H58.7784V30H38.8352ZM75.821 30H65.9631V0.90909H76.0199C78.9081 0.90909 81.3892 1.49148 83.4631 2.65625C85.5464 3.81155 87.1468 5.47348 88.2642 7.64205C89.3816 9.81061 89.9403 12.4053 89.9403 15.4261C89.9403 18.4564 89.3769 21.0606 88.25 23.2386C87.1326 25.4167 85.518 27.0881 83.4062 28.2528C81.304 29.4176 78.7756 30 75.821 30ZM71.233 25.4403H75.5653C77.5919 25.4403 79.2822 25.071 80.6364 24.3324C81.9905 23.5843 83.0085 22.4716 83.6903 20.9943C84.3722 19.5076 84.7131 17.6515 84.7131 15.4261C84.7131 13.2008 84.3722 11.3542 83.6903 9.88636C83.0085 8.40909 82 7.30587 80.6648 6.5767C79.339 5.83807 77.6913 5.46875 75.7216 5.46875H71.233V25.4403Z" fill="#F5F5F5"/>
</svg>
